<?xml version="1.0" ?><!DOCTYPE svg  PUBLIC '-//W3C//DTD SVG 1.1//EN'  'http://www.w3.org/Graphics/SVG/1.1/DTD/svg11.dtd'><svg height="100%" style="fill-rule:evenodd;clip-rule:evenodd;stroke-linejoin:round;stroke-miterlimit:2;" version="1.1" viewBox="0 0 24 24" width="100%" xml:space="preserve" xmlns="http://www.w3.org/2000/svg" xmlns:serif="http://www.serif.com/" xmlns:xlink="http://www.w3.org/1999/xlink"><g id="Icon"><path d="M14,8.75l7,0c0.414,0 0.75,-0.336 0.75,-0.75c0,-0.414 -0.336,-0.75 -0.75,-0.75l-7,0c-0.414,0 -0.75,0.336 -0.75,0.75c0,0.414 0.336,0.75 0.75,0.75Z"/><path d="M6.354,7.25c0.327,-1.154 1.388,-2 2.646,-2c1.518,0 2.75,1.232 2.75,2.75c-0,1.518 -1.232,2.75 -2.75,2.75c-1.258,0 -2.319,-0.846 -2.646,-2l-3.354,0c-0.414,0 -0.75,-0.336 -0.75,-0.75c-0,-0.414 0.336,-0.75 0.75,-0.75l3.354,0Zm2.646,-0.5c0.69,0 1.25,0.56 1.25,1.25c-0,0.69 -0.56,1.25 -1.25,1.25c-0.69,0 -1.25,-0.56 -1.25,-1.25c-0,-0.69 0.56,-1.25 1.25,-1.25Z"/><path d="M12.354,15.25c0.327,-1.154 1.388,-2 2.646,-2c1.518,0 2.75,1.232 2.75,2.75c0,1.518 -1.232,2.75 -2.75,2.75c-1.258,0 -2.319,-0.846 -2.646,-2l-9.354,0c-0.414,0 -0.75,-0.336 -0.75,-0.75c-0,-0.414 0.336,-0.75 0.75,-0.75l9.354,0Zm2.646,-0.5c0.69,0 1.25,0.56 1.25,1.25c0,0.69 -0.56,1.25 -1.25,1.25c-0.69,0 -1.25,-0.56 -1.25,-1.25c0,-0.69 0.56,-1.25 1.25,-1.25Z"/><path d="M21,15.25l-1,0c-0.414,0 -0.75,0.336 -0.75,0.75c0,0.414 0.336,0.75 0.75,0.75l1,0c0.414,0 0.75,-0.336 0.75,-0.75c0,-0.414 -0.336,-0.75 -0.75,-0.75Z"/></g></svg>