<?xml version="1.0" encoding="utf-8"?>
<!-- Generator: Adobe Illustrator 19.0.0, SVG Export Plug-In . SVG Version: 6.00 Build 0)  -->
<svg version="1.1" id="Layer_1" xmlns="http://www.w3.org/2000/svg" xmlns:xlink="http://www.w3.org/1999/xlink" x="0px" y="0px"
	 width="100px" height="100px" viewBox="-909 226 100 100" style="enable-background:new -909 226 100 100;" xml:space="preserve">
<g>
	<path d="M-823.9,261.4h-32.5v-27c0-1.4-1.1-2.5-2.5-2.5s-2.5,1.1-2.5,2.5v27H-894c-7.7,0-13.9,6.2-13.9,13.9v30.9
		c0,7.7,6.2,13.9,13.9,13.9c7.7,0,13.9-6.2,13.9-13.9c0-0.7,0.5-1.2,1.2-1.2h39.8c0.7,0,1.2,0.5,1.2,1.2c0,7.7,6.2,13.9,13.9,13.9
		s13.9-6.2,13.9-13.9v-30.9C-810,267.6-816.3,261.4-823.9,261.4z M-815.6,306.2c0,4.6-3.7,8.3-8.3,8.3s-8.3-3.7-8.3-8.3
		c0-3.8-3.1-6.9-6.8-6.9h-39.8c-3.8,0-6.8,3.1-6.8,6.9c0,4.6-3.7,8.3-8.3,8.3c-4.5,0-8.3-3.8-8.3-8.3v-30.9c0-4.6,3.7-8.3,8.3-8.3
		h70.1c4.6,0,8.3,3.7,8.3,8.3V306.2z"/>
	<path d="M-876.5,281h-6.3v-6.3c0-1.7-1.4-3-3-3c-1.7,0-3,1.4-3,3v6.3h-6.3c-1.7,0-3,1.4-3,3v0c0,1.7,1.4,3,3,3h6.3v6.3
		c0,1.7,1.4,3,3,3c1.7,0,3-1.4,3-3V287h6.3c1.7,0,3-1.4,3-3v0C-873.5,282.3-874.9,281-876.5,281z"/>
	<circle cx="-832.2" cy="276.6" r="3.8"/>
	<circle cx="-832.2" cy="290.8" r="3.8"/>
	<circle cx="-825" cy="283.7" r="3.8"/>
	<circle cx="-839.3" cy="283.7" r="3.8"/>
	<path d="M-852.5,281.5h-12.8c-1.4,0-2.5,1.1-2.5,2.5s1.1,2.5,2.5,2.5h12.8c1.4,0,2.5-1.1,2.5-2.5S-851.2,281.5-852.5,281.5z"/>
</g>
</svg>
